:SAMPLES-PER-SECOND 30
:FULLY-SPECIFIED
:DEGREES
306
root  -22.6601 37.6387 -7.26303 -79.3402 84.4994 -74.3232
RightUpLeg  -16.968 -3.13506 10.8517
RightLeg  31.5922 -2.77776 -2.10549
RightFoot  -8.44367 0.135134 -7.5886
RightToes  4.6566e-010 0 -3.6325e-017
Spine  7.90739 -4.09546 9.30903
Spine1  9.59682 -4.25409 7.04575
HEad  -14.1121 5.65481 -4.86504
LeftShoulder1  0.160481 3.10017 -33.6285
LeftArm  -5.26291 3.80217 -39.1533
LeftForeArm  26.7708 -73.76 -40.7353
LeftHand  0.0725151 2.07758 -3.00987
RightShoulder  -0.904787 -5.97975 29.951
RightArm  -12.8552 -22.3932 27.4878
RightForeArm  101.657 74.5066 132.97
RightHand  -0.0901271 2.27569 -1.55602
LeftUpLeg  -5.53214 -3.10317 6.911
LeftLeg  67.6061 -6.35796 -15.9333
LeftFoot  7.86992 2.21763 -13.4249
LeftToes  -4.59298e-010 2.08438e-011 -1.27151e-011
307
root  -21.1154 38.0332 -7.03829 -70.7988 85.4696 -65.4386
RightUpLeg  -12.9374 -3.28065 9.74436
RightLeg  29.9046 -2.50367 -1.81911
RightFoot  -10.2298 0.00308595 -7.43603
RightToes  4.6566e-010 0 -3.6325e-017
Spine  7.72923 -3.40822 8.71508
Spine1  9.28586 -3.3287 5.90467
HEad  -12.8478 5.10581 -4.69566
LeftShoulder1  0.136771 3.15839 -33.4472
LeftArm  -6.26449 4.93709 -38.1257
LeftForeArm  26.4908 -73.899 -41.3774
LeftHand  0.0722872 1.6555 -2.57115
RightShoulder  -0.859594 -5.87725 29.615
RightArm  -11.778 -21.1356 28.9241
RightForeArm  100.187 75.0592 130.72
RightHand  -0.10594 2.0431 -1.83182
LeftUpLeg  -10.4227 -4.07493 6.28923
LeftLeg  67.5272 -3.93245 -9.75877
LeftFoot  6.53447 1.30137 -8.54571
LeftToes  -4.59298e-010 2.08438e-011 -1.27151e-011
308
root  -19.6075 38.3859 -6.84988 -52.4043 85.8186 -46.6789
RightUpLeg  -8.7429 -3.66312 8.52394
RightLeg  27.7182 -1.254 -0.965852
RightFoot  -11.6893 -0.101283 -7.39102
RightToes  4.6566e-010 0 -3.6325e-017
Spine  7.68105 -2.67234 8.78451
Spine1  9.03988 -2.14333 3.8764
HEad  -11.8585 4.74586 -4.98631
LeftShoulder1  0.1158 3.20654 -32.929
LeftArm  -7.53114 6.21512 -37.3087
LeftForeArm  27.3189 -74.2247 -42.5516
LeftHand  0.0706833 1.64941 -2.51808
RightShoulder  -0.874754 -5.91759 29.6394
RightArm  -10.3373 -19.5751 30.1863
RightForeArm  98.7678 75.5001 128.723
RightHand  -0.0923388 1.85931 -1.63954
LeftUpLeg  -14.3517 -4.49291 5.66926
LeftLeg  64.6147 -2.61767 -5.38693
LeftFoot  4.77921 0.728549 -5.29877
LeftToes  -4.59298e-010 2.08438e-011 -1.27151e-011
309
root  -18.1224 38.6992 -6.6625 -30.2858 85.0903 -24.1687
RightUpLeg  -4.41326 -3.32153 7.4314
RightLeg  25.1462 0.111171 -0.215827
RightFoot  -12.6215 -0.167285 -7.33941
RightToes  4.6566e-010 0 -3.6325e-017
Spine  8.02032 -1.70243 9.27703
Spine1  8.49364 -0.627126 1.37929
HEad  -11.1304 4.04408 -5.46028
LeftShoulder1  0.167535 3.06877 -32.3955
LeftArm  -8.65898 7.40355 -36.5026
LeftForeArm  28.5963 -74.6695 -44.2604
LeftHand  0.0580229 2.24501 -2.654
RightShoulder  -0.90116 -5.9722 29.9167
RightArm  -9.07984 -18.45 30.8652
RightForeArm  98.3382 75.6831 127.871
RightHand  -0.062603 1.20867 -1.22628
LeftUpLeg  -17.0371 -4.28953 5.21694
LeftLeg  58.8238 -2.42515 -3.78298
LeftFoot  2.27727 0.233486 -2.1305
LeftToes  -4.59298e-010 2.08438e-011 -1.27151e-011
310
root  -16.6284 38.8839 -6.48025 -17.9647 84.3779 -12.0641
RightUpLeg  -0.949966 -4.04074 6.26873
RightLeg  22.905 1.8931 0.49384
RightFoot  -13.8231 -0.254515 -7.42192
RightToes  4.6566e-010 0 -3.6325e-017
Spine  7.33049 -0.870193 8.96297
Spine1  8.65894 0.214604 0.399038
HEad  -11.178 3.6669 -6.11502
LeftShoulder1  0.0997737 3.2465 -32.6419
LeftArm  -9.59219 8.25283 -35.435
LeftForeArm  30.2433 -75.1636 -46.3369
LeftHand  0.0719285 1.80709 -2.70644
RightShoulder  -0.849743 -5.85494 29.5329
RightArm  -8.19677 -17.1534 31.8887
RightForeArm  97.5004 75.8798 126.847
RightHand  -0.089778 1.29247 -1.67889
LeftUpLeg  -19.313 -4.23648 4.93292
LeftLeg  50.4174 -2.99085 -3.43534
LeftFoot  0.214139 0.219491 -2.18164
LeftToes  -4.59298e-010 2.08438e-011 -1.27151e-011
311
root  -15.1036 38.9798 -6.31319 -8.88364 84.1516 -3.21349
RightUpLeg  2.51757 -5.38091 4.8028
RightLeg  20.7821 3.57991 1.07984
RightFoot  -15.0982 -0.350821 -7.58308
RightToes  4.6566e-010 0 -3.6325e-017
Spine  6.28535 -0.444097 8.69751
Spine1  9.23653 0.70112 -0.918576
HEad  -11.3143 3.54305 -5.99271
LeftShoulder1  0.0567941 3.35657 -32.4654
LeftArm  -10.5636 9.08108 -34.7814
LeftForeArm  32.4785 -75.6807 -48.6412
LeftHand  0.077081 1.99962 -3.0734
RightShoulder  -0.803264 -5.74544 29.2118
RightArm  -7.31376 -15.9126 33.2349
RightForeArm  95.157 76.0774 125.438
RightHand  -0.159186 1.20951 -2.92657
LeftUpLeg  -20.2433 -4.53282 4.23035
LeftLeg  39.3206 -4.54469 -3.57241
LeftFoot  -0.592259 0.206561 -2.15764
LeftToes  -4.59298e-010 2.08438e-011 -1.27151e-011
312
root  -13.5281 39.0229 -6.19197 2.29208 84.8973 7.53815
RightUpLeg  5.99858 -7.31153 2.68049
RightLeg  18.3873 5.13967 1.77902
RightFoot  -16.3561 -0.443494 -7.5906
RightToes  4.6566e-010 0 -3.6325e-017
Spine  4.19821 -0.403645 7.85281
Spine1  10.8392 0.646438 -1.85742
HEad  -11.4658 3.56183 -5.82649
LeftShoulder1  0.0503309 3.3725 -32.2753
LeftArm  -11.5569 9.39099 -34.4415
LeftForeArm  33.9677 -75.9766 -50.0702
LeftHand  0.0877045 1.92714 -3.36205
RightShoulder  -0.756769 -5.61578 29.1787
RightArm  -7.23164 -14.7574 33.9913
RightForeArm  95.1964 76.393 123.935
RightHand  -0.0673414 1.39436 -1.28478
LeftUpLeg  -20.09 -4.94001 2.86132
LeftLeg  25.757 -7.22683 -3.51855
LeftFoot  -0.650037 0.313226 -3.3054
LeftToes  -4.59298e-010 2.08438e-011 -1.27151e-011
313
root  -12.0721 38.9749 -6.10461 7.38534 85.8561 12.4067
RightUpLeg  9.80219 -8.43331 1.45554
RightLeg  15.5372 5.57293 2.38568
RightFoot  -17.2514 -0.508522 -7.58283
RightToes  4.6566e-010 0 -3.6325e-017
Spine  3.62083 -0.679853 7.85273
Spine1  11.2884 0.458018 -3.17366
HEad  -11.9188 3.53424 -6.00278
LeftShoulder1  0.00421359 3.49291 -32.3924
LeftArm  -12.2745 9.51803 -34.0492
LeftForeArm  35.4009 -76.2812 -51.7325
LeftHand  0.0895557 2.05142 -3.57934
RightShoulder  -0.72695 -5.5455 28.9385
RightArm  -7.11188 -14.1259 34.8934
RightForeArm  96.1003 76.3083 124.556
RightHand  -0.0639195 1.08707 -1.29092
LeftUpLeg  -19.4029 -4.38148 1.4839
LeftLeg  12.3601 -10.3011 -1.93057
LeftFoot  -1.27328 0.47333 -5.30756
LeftToes  -4.59298e-010 2.08438e-011 -1.27151e-011
314
root  -10.6084 38.8139 -6.06921 22.5168 87.6492 27.1327
RightUpLeg  13.1988 -9.2246 0.603243
RightLeg  13.1593 4.8221 2.83045
RightFoot  -18.2591 -0.562976 -7.26151
RightToes  4.6566e-010 0 -3.6325e-017
Spine  3.04041 -1.56329 8.05888
Spine1  11.3361 -0.212982 -4.73983
HEad  -11.8727 3.36291 -5.37494
LeftShoulder1  -0.0136718 3.53897 -31.9864
LeftArm  -13.1104 10.1104 -34.0095
LeftForeArm  37.4439 -76.6367 -53.7813
LeftHand  0.090203 2.08535 -3.63242
RightShoulder  -0.7493 -5.58148 29.4048
RightArm  -6.77492 -13.2721 35.2114
RightForeArm  94.9831 76.4502 123.599
RightHand  -0.0658919 0.707485 -1.45104
LeftUpLeg  -19.2131 -1.4126 -1.42492
LeftLeg  2.12406 -12.7544 0.568532
LeftFoot  -2.70913 0.5036 -6.43353
LeftToes  -4.59298e-010 2.08438e-011 -1.27151e-011
315
root  -9.03953 38.4946 -6.04548 62.817 88.8648 67.4604
RightUpLeg  16.4426 -10.3358 -0.562221
RightLeg  12.6143 4.80031 3.52495
RightFoot  -19.7956 -0.621419 -6.60472
RightToes  4.6566e-010 0 -3.6325e-017
Spine  2.59431 -2.31021 7.51813
Spine1  11.7034 -0.973631 -5.01809
HEad  -11.9438 3.58065 -4.97099
LeftShoulder1  -0.114052 3.79985 -32.4509
LeftArm  -13.3831 10.1646 -33.2921
LeftForeArm  39.3163 -76.9835 -56.1347
LeftHand  0.0591291 2.57145 -3.10986
RightShoulder  -0.708654 -5.48244 29.1383
RightArm  -6.696 -13.0435 35.9276
RightForeArm  94.9134 76.5053 123.303
RightHand  -0.0750327 1.34812 -1.39985
LeftUpLeg  -19.3054 -1.94145 -3.09833
LeftLeg  -1.72073 -6.49525 0.850947
LeftFoot  -3.42549 0.442045 -6.03994
LeftToes  -4.59298e-010 2.08438e-011 -1.27151e-011
316
root  -7.35946 38.0962 -5.92179 81.3046 88.7119 86.8132
RightUpLeg  20.1877 -11.3765 -1.86953
RightLeg  13.3695 6.29932 3.86336
RightFoot  -21.3729 -0.60051 -5.1931
RightToes  4.6566e-010 0 -3.6325e-017
Spine  3.3986 -2.22477 6.79228
Spine1  11.5736 -0.773186 -5.11451
HEad  -11.6601 3.02735 -4.11807
LeftShoulder1  -0.0887186 3.73551 -32.1267
LeftArm  -13.2744 10.134 -33.2254
LeftForeArm  40.0478 -77.0849 -56.8261
LeftHand  0.059622 2.558 -3.06919
RightShoulder  -0.768834 -5.63445 29.4341
RightArm  -6.81406 -13.3859 36.0957
RightForeArm  94.9848 76.5181 123.251
RightHand  -0.0720896 0.6241 -1.46341
LeftUpLeg  -19.1173 -2.60321 -4.16611
LeftLeg  1.30555 -0.25669 0.549719
LeftFoot  -2.86173 0.287616 -3.73142
LeftToes  -4.59298e-010 2.08438e-011 -1.27151e-011
317
root  -5.6782 37.8283 -5.72021 46.3975 87.6859 53.1692
RightUpLeg  24.1148 -11.6873 -3.53727
RightLeg  14.1739 9.18016 3.66356
RightFoot  -21.7416 -0.39684 -2.73549
RightToes  4.6566e-010 0 -3.6325e-017
Spine  4.91412 -1.25075 5.27551
Spine1  11.568 0.321112 -5.0718
HEad  -11.1276 2.29882 -3.44725
LeftShoulder1  -0.0785156 3.7109 -31.7211
LeftArm  -13.0715 10.6727 -33.305
LeftForeArm  42.4822 -77.3972 -59.0472
LeftHand  0.05943 2.55019 -3.11853
RightShoulder  -0.813692 -5.73781 29.797
RightArm  -6.92799 -14.619 35.7083
RightForeArm  96.4149 76.3038 124.653
RightHand  -0.0606191 0.0475887 -1.30845
LeftUpLeg  -18.7605 -2.55014 -5.01888
LeftLeg  7.14014 1.26523 0.692291
LeftFoot  1.30267 -0.203391 1.56349
LeftToes  -4.59298e-010 2.08438e-011 -1.27151e-011
